<?xml version="1.0" standalone="no"?>
<svg viewBox="0 0 200 200" xmlns="http://www.w3.org/2000/svg">
  <defs>
    <linearGradient id="gradient" x1="1" x2="0" y1="0" y2="1">
      <stop offset="0%" stop-color="#8A3FFC" />
      <stop offset="100%" stop-color="#fab790" />
    </linearGradient>
    <style>
      #blob {fill:url(#gradient)}
    </style>
  </defs>

  <path id="blob" d="M39.4,-53.5C52.9,-44.5,66.8,-35.4,76,-21.3C85.2,-7.3,89.7,11.7,85.6,28.9C81.5,46.1,68.7,61.6,53,70.3C37.3,79,18.7,81,2.7,77.4C-13.3,73.7,-26.6,64.3,-41.9,55.4C-57.1,46.6,-74.2,38.1,-77.7,25.7C-81.1,13.2,-70.9,-3.3,-63.2,-18.5C-55.4,-33.7,-50,-47.6,-39.9,-57.6C-29.8,-67.6,-14.9,-73.8,-0.9,-72.5C13,-71.2,26,-62.5,39.4,-53.5Z" transform="translate(100 100)" />
</svg>
