<?xml version="1.0" standalone="no"?>
<svg viewBox="0 0 200 200" xmlns="http://www.w3.org/2000/svg">
  <defs>
    <linearGradient id="gradient" x1="0" x2="1" y1="0" y2="2">
      <stop offset="0%" stop-color="#8A3FFC" />
      <stop offset="100%" stop-color="#fab790" />
    </linearGradient>
    <style>
      #blob {fill: url(#gradient)}
    </style>
  </defs>
  <path id="blob" d="M45.7,-60.5C61.1,-51.8,76.6,-40.9,84.1,-25.5C91.5,-10.2,90.8,9.5,81.1,22.4C71.4,35.2,52.8,41.1,37.8,45.1C22.7,49.2,11.4,51.5,-2.9,55.5C-17.1,59.5,-34.3,65.1,-42.4,58.8C-50.6,52.5,-49.8,34.2,-51.8,19C-53.8,3.7,-58.6,-8.4,-55.4,-17.9C-52.2,-27.4,-40.9,-34.1,-30.4,-44.4C-19.8,-54.7,-9.9,-68.5,2.6,-72.1C15.2,-75.8,30.4,-69.2,45.7,-60.5Z" transform="translate(100 100)" />
</svg>
